<svg width="154.08" height="22.816" viewBox="0 -2 154.08 28" xmlns="http://www.w3.org/2000/svg">
    <g id="svgGroup" stroke-linecap="round" fill-rule="evenodd" font-size="9pt" stroke="#e3e3e3"
        stroke-width="0.5mm" fill="#e3e3e3" style="stroke:#e3e3e3;stroke-width:0.5mm;fill:#e3e3e3">
        <path
            d="M 101.728 22.624 L 98.016 22.624 Q 98.048 19.744 98.992 17.456 Q 99.936 15.168 101.488 13.504 Q 103.04 11.84 104.896 10.912 L 98.112 0.224 L 102.528 0.224 L 108.224 9.184 Q 109.6 8.544 110.688 7.248 Q 111.776 5.952 112.4 4.144 Q 113.024 2.336 113.024 0.224 L 116.736 0.224 Q 116.704 3.072 115.856 5.472 Q 115.008 7.872 113.552 9.648 Q 112.096 11.424 110.208 12.352 L 116.704 22.624 L 112.352 22.624 L 106.912 14.08 Q 105.536 14.72 104.352 15.92 Q 103.168 17.12 102.448 18.8 Q 101.728 20.48 101.728 22.624 Z M 3.712 22.624 L 0 22.624 L 0 0.224 L 3.712 0.224 L 3.712 9.408 Q 5.568 9.12 6.992 8.176 Q 8.416 7.232 9.408 5.92 Q 10.4 4.608 10.928 3.104 Q 11.456 1.6 11.488 0.224 L 15.104 0.224 Q 15.104 2.848 13.856 5.456 Q 12.608 8.064 10.112 10.048 L 16.448 22.624 L 12.224 22.624 L 6.88 12.032 Q 5.408 12.736 3.712 13.184 L 3.712 22.624 Z M 63.232 22.624 L 59.52 22.624 L 59.52 0.224 L 63.008 0.224 Q 64.768 0.224 66.608 0.496 Q 68.448 0.768 70.144 1.456 Q 71.84 2.144 73.2 3.36 Q 74.56 4.576 75.36 6.432 Q 76.16 8.288 76.16 10.944 L 76.16 22.624 L 72.448 22.624 L 72.448 10.976 Q 72.448 8.576 71.616 7.088 Q 70.784 5.6 69.408 4.832 Q 68.032 4.064 66.416 3.776 Q 64.8 3.488 63.232 3.488 L 63.232 22.624 Z M 136.416 0.224 L 136.416 22.624 L 132.928 22.624 Q 131.168 22.624 129.328 22.352 Q 127.488 22.08 125.792 21.392 Q 124.096 20.704 122.736 19.488 Q 121.376 18.272 120.576 16.416 Q 119.776 14.56 119.776 11.904 L 119.776 0.224 L 123.488 0.224 L 123.488 11.872 Q 123.488 14.272 124.336 15.76 Q 125.184 17.248 126.56 18.016 Q 127.936 18.784 129.552 19.072 Q 131.168 19.36 132.736 19.36 L 132.736 0.224 L 136.416 0.224 Z M 94.432 22.624 L 92.512 22.624 Q 90.752 22.624 88.912 22.352 Q 87.072 22.08 85.376 21.392 Q 83.68 20.704 82.32 19.488 Q 80.96 18.272 80.16 16.416 Q 79.36 14.56 79.36 11.904 L 79.36 0.224 L 94.464 0.224 L 94.464 3.648 L 83.072 3.648 L 83.072 8 L 92.192 8 L 92.192 11.264 L 83.072 11.264 Q 83.072 13.856 83.84 15.472 Q 84.608 17.088 85.936 17.92 Q 87.264 18.752 88.96 19.056 Q 90.656 19.36 92.512 19.36 L 94.432 19.36 L 94.432 22.624 Z M 55.328 22.624 L 51.808 22.624 Q 49.76 22.624 47.712 22.08 Q 45.664 21.536 43.952 20.288 Q 42.24 19.04 41.216 16.976 Q 40.192 14.912 40.192 11.904 L 40.192 0.224 L 55.296 0.224 L 55.296 3.744 L 43.904 3.744 L 43.904 11.872 Q 43.904 14.016 44.592 15.408 Q 45.28 16.8 46.432 17.6 Q 47.584 18.4 48.976 18.752 Q 50.368 19.104 51.808 19.2 L 51.808 13.248 L 55.328 13.248 L 55.328 22.624 Z M 145.76 22.624 L 140.192 22.624 L 140.192 19.072 L 146.112 19.072 Q 148.256 19.072 149.312 18.304 Q 150.368 17.536 150.368 15.584 Q 150.368 14.368 149.776 13.744 Q 149.184 13.12 148.32 12.784 Q 147.456 12.448 146.592 12.16 Q 145.504 11.776 144.336 11.248 Q 143.168 10.72 142.192 9.808 Q 141.216 8.896 140.608 7.344 Q 140 5.792 140 3.36 L 140 0.224 L 153.056 0.224 L 153.056 3.776 L 143.68 3.776 Q 143.68 5.216 144.048 6.128 Q 144.416 7.04 145.408 7.696 Q 146.4 8.352 148.288 9.024 Q 149.088 9.312 150.08 9.744 Q 151.072 10.176 151.984 10.896 Q 152.896 11.616 153.488 12.768 Q 154.08 13.92 154.08 15.616 Q 154.08 18.08 152.928 19.632 Q 151.776 21.184 149.888 21.904 Q 148 22.624 145.76 22.624 Z M 18.048 12.448 L 18.048 10.336 Q 18.048 8.224 18.768 6.352 Q 19.488 4.48 20.768 3.056 Q 22.048 1.632 23.776 0.816 Q 25.504 0 27.52 0 Q 29.536 0 31.264 0.816 Q 32.992 1.632 34.272 3.056 Q 35.552 4.48 36.272 6.352 Q 36.992 8.224 36.992 10.336 L 36.992 12.448 Q 36.992 14.592 36.272 16.48 Q 35.552 18.368 34.272 19.792 Q 32.992 21.216 31.264 22.016 Q 29.536 22.816 27.52 22.816 Q 25.504 22.816 23.776 22.016 Q 22.048 21.216 20.768 19.792 Q 19.488 18.368 18.768 16.48 Q 18.048 14.592 18.048 12.448 Z M 33.152 12.448 L 33.152 10.336 Q 33.152 7.296 31.664 5.424 Q 30.176 3.552 27.52 3.552 Q 24.864 3.552 23.376 5.424 Q 21.888 7.296 21.888 10.336 L 21.888 12.448 Q 21.888 14.4 22.56 15.936 Q 23.232 17.472 24.496 18.368 Q 25.76 19.264 27.52 19.264 Q 29.312 19.264 30.56 18.368 Q 31.808 17.472 32.48 15.936 Q 33.152 14.4 33.152 12.448 Z"
            vector-effect="non-scaling-stroke" />
    </g>
</svg>