<?xml version="1.0" encoding="UTF-8" standalone="no"?>
<!-- Created with Inkscape (http://www.inkscape.org/) -->

<svg
   version="1.1"
   id="svg1"
   width="270.72"
   height="303.67999"
   viewBox="0 0 270.72 303.67999"
   sodipodi:docname="logo_v2_dark.png"
   inkscape:version="1.3.2 (091e20e, 2023-11-25)"
   xmlns:inkscape="http://www.inkscape.org/namespaces/inkscape"
   xmlns:sodipodi="http://sodipodi.sourceforge.net/DTD/sodipodi-0.dtd"
   xmlns="http://www.w3.org/2000/svg"
   xmlns:svg="http://www.w3.org/2000/svg">
  <defs
     id="defs1" />
  <sodipodi:namedview
     id="namedview1"
     pagecolor="#ffffff"
     bordercolor="#000000"
     borderopacity="0.25"
     inkscape:showpageshadow="2"
     inkscape:pageopacity="0.0"
     inkscape:pagecheckerboard="0"
     inkscape:deskcolor="#d1d1d1"
     inkscape:zoom="1.5542677"
     inkscape:cx="108.41118"
     inkscape:cy="82.353896"
     inkscape:window-width="1920"
     inkscape:window-height="1147"
     inkscape:window-x="0"
     inkscape:window-y="25"
     inkscape:window-maximized="1"
     inkscape:current-layer="g1" />
  <g
     inkscape:groupmode="layer"
     inkscape:label="Image"
     id="g1">
    <path
       style="fill:#000000"
       d="m 8.1443806,299.37908 c -4.2515,-1.89769 -4.48715,-8.08916 -0.38349,-10.07571 3.0533904,-1.47812 6.4914404,-0.25936 7.7829104,2.75898 1.94731,4.55119 -2.88659,9.33107 -7.3994204,7.31673 z m 73.6792204,-0.20864 c -1.77095,-0.93489 -2.88416,-2.79831 -2.90369,-4.86049 -0.0359,-3.79363 3.07852,-6.27119 6.96641,-5.54182 1.58101,0.2966 3.53548,2.22702 3.99843,3.94924 1.27209,4.73231 -3.73223,8.73835 -8.06115,6.45307 z m 87.280779,0.20864 c -3.66613,-1.63641 -4.485,-6.47069 -1.55941,-9.20609 3.51556,-3.28702 9.39941,-0.80797 9.39941,3.96025 0,4.05344 -4.20616,6.86783 -7.84,5.24584 z m 89.91405,0.008 c -1.35771,-0.59159 -2.96305,-2.53018 -3.21723,-3.8851 -1.03016,-5.49121 5.23429,-9.09503 9.26259,-5.3286 3.72477,3.48263 1.21057,9.70141 -3.90024,9.64712 -0.64854,-0.007 -1.61385,-0.20193 -2.14512,-0.43342 z M 19.091701,297.83263 c 0.40729,-0.75138 0.56499,-1.77264 0.56821,-3.68 l 0.005,-2.64 h 27.93889 c 18.64882,0 27.87275,0.10701 27.74,0.32181 -0.39298,0.63585 -0.18916,4.4263 0.30111,5.59968 0.275,0.65817 0.5,1.25109 0.5,1.31759 0,0.0665 -12.96369,0.12092 -28.80821,0.12092 h -28.80875 z m 160.732679,0.93701 c 0,-0.0566 0.23227,-0.78466 0.51615,-1.6178 0.34287,-1.00629 0.47206,-2.20708 0.38483,-3.57701 l -0.13131,-2.0622 h 35.74482 35.74482 l -0.17245,1.90178 c -0.11838,1.30552 -0.009,2.40292 0.35035,3.50013 0.28753,0.87909 0.52279,1.67929 0.52279,1.77822 0,0.0989 -16.416,0.17987 -36.48,0.17987 -20.064,0 -36.48,-0.0464 -36.48,-0.10299 z m -35.52723,-27.58424 -18.691,-18.69305 1.33863,-1.14582 c 0.77273,-0.66143 1.7219,-1.94436 2.24523,-3.03474 l 0.90659,-1.88892 19.31659,19.31857 19.31659,19.31857 -1.11597,0.46628 c -1.33436,0.55753 -3.37274,2.29189 -4.1009,3.48924 l -0.52477,0.86291 z M 17.838451,288.49005 c -0.54344,-0.73712 -0.49167,-0.80331 11.30908,-14.45896 6.52027,-7.54515 11.97006,-13.83938 12.11065,-13.98717 0.14059,-0.14779 0.63268,-0.0712 1.09353,0.17032 l 0.8379,0.43902 -11.87281,13.74969 c -6.53005,7.56232 -12.11123,13.99222 -12.40262,14.28865 -0.49613,0.50471 -0.56449,0.4919 -1.07573,-0.20155 z m 217.511769,-17.13158 -17.77149,-17.77361 1.65419,-0.58751 c 1.08666,-0.38595 2.16853,-1.11558 3.15336,-2.12666 l 1.49917,-1.53914 17.64946,17.65161 c 9.70721,9.70839 17.64947,17.73634 17.64947,17.83989 0,0.10355 -0.58907,0.36477 -1.30904,0.58048 -0.80262,0.24047 -1.97535,1.03756 -3.03134,2.06037 l -1.7223,1.66818 z m -57.27448,16.32671 c -0.54921,-0.60687 -0.52722,-0.67338 0.6704,-2.0272 3.80215,-4.29809 30.99344,-33.82371 31.14169,-33.81517 0.0971,0.006 0.44696,0.21493 0.77746,0.46519 0.5819,0.44062 0.57641,0.48413 -0.1738,1.3757 -1.09768,1.30452 -31.66723,34.62893 -31.76623,34.62893 -0.0449,0 -0.33721,-0.28235 -0.64952,-0.62745 z M 66.480301,273.36051 c -6.38875,-7.34367 -11.92485,-13.71856 -12.30245,-14.16642 -0.66867,-0.79311 -0.67131,-0.83309 -0.10135,-1.53695 l 0.58517,-0.72266 11.74878,13.52908 c 6.46183,7.44099 12.1094,13.91987 12.55014,14.3975 0.66786,0.72375 0.7334,0.95033 0.3934,1.36 -0.22439,0.27037 -0.59917,0.49157 -0.83287,0.49157 -0.23369,0 -5.65206,-6.00845 -12.04082,-13.35212 z m 21.98408,12.30893 c -0.80543,-0.4148 -2.14015,-0.71514 -3.6,-0.81009 l -2.32,-0.15088 0.002,-33.79792 0.002,-33.79792 2.15835,-0.0177 c 3.70565,-0.0305 6.75895,-2.00608 8.35805,-5.40802 l 0.7327,-1.55876 12.444359,12.44129 12.44436,12.44129 -1.60193,0.59758 c -0.96999,0.36184 -2.21018,1.20582 -3.14381,2.13945 l -1.54188,1.54188 -11.00502,-11.00848 c -6.052749,-6.05467 -11.113149,-11.00849 -11.245319,-11.00849 -0.13217,0 -0.27696,15.53761 -0.32174,34.52801 l -0.0815,34.52796 z m 86.479999,-0.13938 c -0.70716,-0.18229 -0.73304,0.79983 0.39591,-15.02131 1.27468,-17.86333 1.12881,-16.75612 2.20754,-16.75612 0.86989,0 0.87628,0.0157 0.74721,1.84 -1.58792,22.44345 -2.2072,29.95917 -2.47318,30.01506 -0.17461,0.0367 -0.56948,0.002 -0.87748,-0.0776 z M 7.0243806,251.62175 c 0,-29.77016 0.0565,-33.75591 0.47611,-33.59489 1.23938,0.4756 3.6484504,0.52635 5.2038904,0.10962 l 1.68,-0.45009 v 33.91044 33.91045 l -0.72,-0.21522 c -1.46544,-0.43805 -4.6871804,-0.57348 -5.6508304,-0.23754 l -0.98917,0.34482 z m 38.5600004,5.66103 c -2.16248,-0.49334 -3.78359,-2.05084 -4.34047,-4.17015 -0.50903,-1.93721 0.0146,-3.8128 1.47114,-5.26933 3.53156,-3.53156 9.50318,-1.01999 9.50318,3.99689 0,3.54114 -3.25671,6.21303 -6.63385,5.44259 z m 72.556879,-8.02715 c -2.12398,-1.07976 -2.79688,-2.269 -2.79688,-4.943 0,-2.63713 0.7158,-3.93753 2.7342,-4.96724 2.97507,-1.51777 6.28235,-0.34652 7.70099,2.72724 0.74927,1.62345 0.74725,2.85538 -0.007,4.51715 -1.32262,2.91252 -4.77397,4.11824 -7.63092,2.66585 z m 55.68,0 c -2.12398,-1.07976 -2.79688,-2.269 -2.79688,-4.943 0,-2.63713 0.7158,-3.93753 2.7342,-4.96724 2.97507,-1.51777 6.28235,-0.34652 7.70099,2.72724 0.74927,1.62345 0.74725,2.85538 -0.007,4.51715 -1.32262,2.91252 -4.77397,4.11824 -7.63092,2.66585 z m 39.38429,0.0351 c -3.69721,-1.67859 -4.20651,-6.95868 -0.91348,-9.4704 2.14407,-1.63536 5.20652,-1.45317 7.18127,0.42722 4.67296,4.44969 -0.36746,11.72202 -6.26779,9.04318 z m -158.901419,-2.9813 c -0.49213,-0.75108 -0.33146,-0.9555 11.64756,-14.81919 6.68061,-7.73168 12.48049,-14.39588 12.88861,-14.80932 0.66865,-0.67735 0.82014,-0.70901 1.53156,-0.32 0.78606,0.42983 0.73402,0.49578 -11.8964,15.0777 -6.97725,8.05529 -12.90785,14.86793 -13.17911,15.13919 -0.44428,0.44428 -0.54272,0.41765 -0.99222,-0.26838 z m 75.920249,-1.6768 v -0.8 h 18.4 18.4 v 0.8 0.8 h -18.4 -18.4 z m 55.68,0 v -0.8 h 10.24 10.24 v 0.8 0.8 h -10.24 -10.24 z M 31.949251,233.64584 c -4.99668,-5.74871 -10.48188,-12.05388 -12.18934,-14.0115 l -3.10448,-3.55931 0.70448,-0.63921 0.70447,-0.63922 12.14265,13.98595 c 6.67845,7.69227 12.19018,14.12857 12.24828,14.30288 0.0581,0.17431 -0.23789,0.47345 -0.65778,0.66476 -0.72618,0.33087 -1.20659,-0.16203 -9.84828,-10.10435 z M 193.75694,229.7652 c -6.85539,-6.85709 -12.51005,-12.42174 -12.56589,-12.3659 -0.10235,0.10235 -1.35975,16.09252 -1.36425,17.34896 -0.002,0.54877 -0.15351,0.64674 -0.80715,0.52179 -0.4426,-0.0846 -0.86627,-0.25342 -0.9415,-0.37513 -0.0752,-0.12171 0.14049,-3.88452 0.47936,-8.36179 0.33886,-4.47727 0.61854,-8.3925 0.62149,-8.7005 0.003,-0.34127 0.25067,-0.56 0.63338,-0.56 1.52402,0 4.33791,-1.41543 5.88043,-2.95795 l 1.58626,-1.58626 11.70916,11.70915 11.70915,11.70915 -1.18206,0.97435 c -0.66604,0.54901 -1.62661,1.87737 -2.20042,3.04296 -0.56011,1.13773 -1.0353,2.0686 -1.05599,2.0686 -0.0207,0 -5.64657,-5.61034 -12.50197,-12.46743 z m -64.46216,10.64636 c -0.31115,-0.68291 -0.30507,-0.90014 0.0306,-1.09321 0.23043,-0.13252 9.70696,-6.06905 21.05896,-13.1923 20.34335,-12.76521 20.64902,-12.94265 21.26756,-12.34594 0.40078,0.38664 0.51642,0.71591 0.32,0.91119 -0.24001,0.23861 -36.03587,22.74796 -41.1382,25.86875 l -1.15064,0.70377 z m -7.03668,-5.51131 c -0.37311,-0.23626 -0.4078,-1.66502 -0.21156,-8.7151 0.1291,-4.63788 0.25822,-8.45681 0.28694,-8.4865 0.0287,-0.0297 0.4712,-0.15915 0.9833,-0.28768 l 0.93108,-0.23369 -0.21174,3.93792 c -0.11646,2.16585 -0.21174,6.21931 -0.21174,9.00767 0,4.61688 -0.05,5.06933 -0.56,5.06486 -0.308,-0.003 -0.76083,-0.13206 -1.00628,-0.28748 z M 8.1443806,214.10782 c -0.704,-0.32492 -1.5944,-0.93375 -1.97868,-1.35297 -2.15606,-2.35211 -1.69696,-6.46056 0.93144,-8.33527 1.52744,-1.08944 5.0630904,-1.07799 6.6045304,0.0214 2.08431,1.48656 2.85334,4.6991 1.67676,7.0044 -0.74845,1.46648 -1.47538,2.13991 -2.99548,2.77505 -1.53729,0.64232 -2.6679404,0.61228 -4.2385704,-0.11261 z M 120.2032,213.28902 c -1.5946,-0.56871 -2.41665,-1.32771 -3.13699,-2.89639 -1.73165,-3.77101 0.82941,-7.90572 4.92085,-7.94447 2.01763,-0.0191 3.40502,0.64529 4.58905,2.19763 1.01582,1.33181 1.3548,3.64965 0.78586,5.37354 -0.46743,1.41633 -2.17075,2.95027 -3.76884,3.39406 -1.52718,0.42411 -1.8893,0.41082 -3.38993,-0.12437 z m -38.197649,-0.47829 c -2.69337,-1.22283 -3.95365,-4.9626 -2.56168,-7.60155 1.71102,-3.24382 6.17195,-3.97218 8.82947,-1.44163 2.8954,2.75706 2.28471,7.16479 -1.23934,8.94508 -1.73197,0.87497 -3.25203,0.90462 -5.02845,0.0981 z m 94.375709,-0.0533 c -2.11674,-1.0478 -2.79688,-2.24539 -2.79688,-4.9248 0,-1.83447 0.13523,-2.42959 0.74695,-3.28724 2.04844,-2.87198 6.53636,-3.08762 8.77947,-0.42185 2.38732,2.83718 1.68608,6.7541 -1.53588,8.57896 -1.60374,0.90833 -3.43052,0.92764 -5.19366,0.0549 z M 19.824381,209.51674 v -0.81966 l 3.92,-0.18315 c 6.43323,-0.30058 50.78417,-0.88885 51.12513,-0.67813 0.17318,0.10704 0.31487,0.52289 0.31487,0.92412 v 0.72951 l -12.4,0.21039 c -6.82,0.11572 -19.276,0.30628 -27.68,0.42348 l -15.28,0.2131 z m 74.03831,-0.96411 c 0.10613,-0.396 0.19492,-0.828 0.19732,-0.96 0.002,-0.132 4.18037,-0.24 9.284369,-0.24 h 9.28 v 0.96 0.96 h -9.47732 -9.477319 z m 37.641689,-0.24 v -0.96 h 19.04 19.04 v 0.96 0.96 h -19.04 -19.04 z m 16.00059,-24.7994 c -19.08848,-19.09001 -21.94246,-21.82655 -22.10986,-21.2 -0.10572,0.39567 -0.28782,6.40741 -0.40469,13.35941 -0.11686,6.952 -0.30367,14.98 -0.41515,17.84 -0.20081,5.15235 -0.20941,5.2 -0.93789,5.2 -0.40438,0 -0.7969,-0.108 -0.87227,-0.24 -0.10045,-0.17592 0.61038,-36.10334 0.72131,-36.4573 0.01,-0.0315 0.78315,-0.27974 1.71838,-0.55161 2.00271,-0.58221 4.00195,-1.94947 5.0339,-3.44264 0.40613,-0.58765 0.79086,-1.13425 0.85494,-1.21467 0.0641,-0.0804 9.75154,9.488 21.52769,21.26317 l 21.41118,21.40939 -1.51934,1.45683 c -0.83832,0.80383 -1.79936,2.1376 -2.14406,2.97563 -0.3436,0.83534 -0.69712,1.51934 -0.78561,1.52 -0.0885,6.6e-4 -10.02382,-9.86254 -22.07853,-21.91821 z M 18.599191,204.44147 c -0.23053,-0.36913 -0.37317,-0.71025 -0.31698,-0.75802 1.54009,-1.30936 21.29759,-16.60124 21.59834,-16.71665 0.44192,-0.16958 1.38383,0.42489 1.38383,0.87338 0,0.28375 -21.64879,17.27246 -22.01037,17.27246 -0.12962,0 -0.42429,-0.30203 -0.65482,-0.67117 z m 73.09246,-2.81871 c -0.33526,-0.37045 -0.46913,-0.80282 -0.3251,-1.04996 0.13467,-0.23109 6.2095,-9.30328 13.499629,-20.16042 12.99753,-19.35714 13.26999,-19.73331 14.03885,-19.383 0.43124,0.19649 0.72404,0.5116 0.65067,0.70025 -0.17776,0.45703 -26.436749,39.58732 -26.918429,40.11297 -0.30227,0.32986 -0.48703,0.2869 -0.94562,-0.21984 z m -25.62727,-7.58768 c -5.808,-4.3042 -10.83155,-8.0072 -11.16345,-8.22889 -0.53322,-0.35617 -0.5522,-0.48515 -0.16302,-1.10832 0.24223,-0.38788 0.5445,-0.70523 0.6717,-0.70523 0.17758,0 22.03213,15.94847 22.62615,16.51154 0.16142,0.15302 -0.9562,1.41856 -1.22097,1.38258 -0.10472,-0.0142 -4.94241,-3.54749 -10.75041,-7.85168 z m -52.96,5.90914 c -0.44,-0.18031 -1.988,-0.269 -3.4400004,-0.19708 l -2.64,0.13077 v -19.6003 -19.6003 l 1.03789,0.29766 c 1.45325,0.41679 3.7050704,0.34703 5.1221104,-0.15867 l 1.2,-0.42825 v 19.96229 c 0,10.97926 -0.108,19.95317 -0.24,19.94201 -0.132,-0.0112 -0.6,-0.16781 -1.04,-0.34813 z m 73.92,-1.21768 -0.8,-0.20183 -0.22354,-9.90604 c -0.12295,-5.44832 -0.26695,-13.96758 -0.32,-18.9317 l -0.0965,-9.02567 0.75776,-0.1899 c 0.41677,-0.10445 0.82335,-0.12432 0.90352,-0.0442 0.15504,0.15504 0.81791,38.33061 0.66742,38.4379 -0.0488,0.0348 -0.4487,-0.0276 -0.8887,-0.1386 z m -42.15795,-13.49138 c -0.57087,-0.16487 -1.53705,-0.79886 -2.14705,-1.40886 -3.53264,-3.53264 -1.02832,-9.50751 3.985,-9.50751 3.15849,0 5.51385,2.35213 5.51385,5.50629 0,2.43462 -1.58045,4.63494 -3.8816,5.40401 -1.26059,0.42131 -2.02773,0.42265 -3.4702,0.006 z m 10.3416,-9.42222 c -0.15828,-0.63066 -0.0628,-0.96932 0.36052,-1.27866 0.31671,-0.23143 5.32783,-4.15744 11.13583,-8.72445 l 10.56,-8.30367 0.70089,0.64106 0.70088,0.64106 -1.50088,1.18379 c -10.12762,7.98791 -20.98084,16.40668 -21.3176,16.53591 -0.26302,0.10093 -0.50617,-0.16329 -0.63964,-0.69504 z m -26.89451,-9.57338 c -5.80297,-4.28564 -10.58609,-7.91242 -10.62916,-8.0595 -0.0431,-0.14708 0.12555,-0.53702 0.37472,-0.86652 0.43322,-0.57289 0.52724,-0.54508 2.14917,0.6358 3.09635,2.25436 19.93385,14.60971 20.06751,14.72553 0.16265,0.14095 -0.95842,1.40553 -1.22097,1.37727 -0.10472,-0.0113 -4.93829,-3.52694 -10.74127,-7.81258 z M 120.62438,157.714 c -1.02222,-0.40641 -2.48811,-1.79439 -3.06857,-2.90547 -1.09378,-2.09367 -0.18047,-5.57381 1.8404,-7.0128 1.50922,-1.07466 4.29807,-1.21702 5.92531,-0.30245 4.04591,2.27392 3.8414,8.06799 -0.35199,9.97253 -1.42749,0.64834 -3.09862,0.74379 -4.34515,0.24819 z M 7.6515906,156.69576 c -3.83988,-2.03058 -3.77423,-7.9124 0.1093,-9.79239 5.8751204,-2.84409 11.1632604,4.55671 6.4229104,8.98891 -1.83107,1.71203 -4.2511904,2.00971 -6.5322104,0.80348 z m 74.3240404,-0.43462 c -4.14396,-2.04252 -4.1092,-8.16666 0.0571,-10.05876 4.35973,-1.97996 9.10145,1.86316 7.88279,6.38893 -0.926,3.43891 -4.78741,5.22366 -7.93988,3.66983 z m -62.15125,-3.6285 v -0.96 l 2.32,0.001 c 2.20829,0.001 37.00981,-0.53294 47.69089,-0.73178 l 5.05088,-0.094 0.18755,0.74724 c 0.10315,0.41099 0.11291,0.82189 0.0217,0.91311 -0.11959,0.11959 -42.05969,0.94874 -54.391,1.0753 -0.76645,0.008 -0.88,-0.11483 -0.88,-0.95096 z m 80.10651,0.3424 c -3.19743,-0.10032 -5.89171,-0.26069 -5.98731,-0.35638 -0.0956,-0.0957 -0.0907,-0.49168 0.0108,-0.88 0.21678,-0.82899 0.36804,-0.8352 12.058269,-0.49498 l 7.25171,0.21105 v 0.90895 0.90896 l -3.76,-0.0576 c -2.068,-0.0317 -6.37607,-0.13968 -9.573489,-0.24 z m -81.35169,-5.67379 c -0.20833,-0.45723 -0.33739,-0.86134 -0.2868,-0.89804 0.0506,-0.0367 4.89641,-3.77291 10.76848,-8.30269 5.87208,-4.52979 10.84917,-8.30224 11.0602,-8.38322 0.21102,-0.081 0.63123,0.1263 0.93379,0.46062 0.53147,0.58727 0.17859,0.89445 -10.4202,9.07069 -6.03366,4.65457 -11.12923,8.55759 -11.32349,8.6734 -0.19795,0.118 -0.51971,-0.15486 -0.73198,-0.62076 z m 112.134549,0.2409 c -0.2795,-0.88062 -2.89135,-3.19615 -4.24149,-3.76027 l -1.15346,-0.48195 22.37279,-22.3846 c 21.59175,-21.603161 22.38955,-22.361091 22.85279,-21.710921 1.31849,1.850541 2.46153,2.967491 3.6497,3.566411 0.72067,0.36327 1.37611,0.72059 1.45654,0.79405 0.17059,0.15582 -44.19762,44.58777 -44.52381,44.58777 -0.12062,0 -0.30649,-0.27472 -0.41306,-0.61049 z M 65.683801,137.02361 c -6.19333,-4.70304 -11.26475,-8.69497 -11.26983,-8.87097 -0.005,-0.176 0.18421,-0.57494 0.42064,-0.88653 0.39375,-0.51891 1.35446,0.13638 11.42983,7.79615 6.04997,4.59947 11.17307,8.52641 11.38468,8.72653 0.29813,0.28195 0.26211,0.52388 -0.16,1.07482 l -0.54474,0.71097 z m 49.392199,4.4855 c -9.97078,-15.43085 -24.851619,-38.81042 -24.851619,-39.04486 0,-0.16083 0.26116,-0.52877 0.58036,-0.81763 0.5519,-0.49946 1.24628,0.51291 14.159999,20.6445 7.4688,11.64335 13.61937,21.26456 13.66793,21.38048 0.0485,0.11592 -0.27874,0.37798 -0.72732,0.58237 -0.79269,0.36117 -0.87219,0.28405 -2.82935,-2.74486 z m -101.971619,1.34341 c -1.33049,-0.5034 -3.5981004,-0.57636 -5.0421104,-0.16222 l -1.03789,0.29766 -1.4e-4,-19.57766 -1.4e-4,-19.57766 h 2.96014 c 1.6280804,0 3.2841404,-0.11771 3.6801404,-0.26157 l 0.72,-0.26156 v 20.02156 c 0,11.01186 -0.036,20.00439 -0.08,19.98339 -0.044,-0.021 -0.584,-0.22887 -1.2,-0.46194 z M 122.70628,130.95264 c 0.13135,-6.644 0.32865,-15.392 0.43846,-19.44 l 0.19964,-7.36 0.92947,-0.10603 0.92948,-0.10603 -0.20669,7.14603 c -0.11367,3.93031 -0.28857,12.40203 -0.38865,18.82603 -0.10009,6.424 -0.24808,12.004 -0.32889,12.4 -0.10702,0.52447 -0.37295,0.72 -0.97927,0.72 h -0.83236 z m -36.881899,10.90807 c -0.31364,-0.12656 -0.4,-4.23149 -0.4,-19.01474 0,-16.06196 0.0672,-18.85333 0.45383,-18.85333 0.24961,0 0.68161,-0.0874 0.96,-0.19424 0.4581,-0.17579 0.50617,1.63236 0.50617,19.04 0,18.11461 -0.0326,19.23277 -0.56,19.20897 -0.308,-0.0139 -0.74,-0.0979 -0.96,-0.18666 z m -40.85632,-14.02429 c -3.99962,-1.42335 -5.19261,-6.33352 -2.25301,-9.27312 3.53156,-3.53155 9.50318,-1.01998 9.50318,3.99689 0,3.80987 -3.73427,6.52743 -7.25017,5.27623 z m 10.43636,-8.9598 c -0.35172,-0.77196 -0.14779,-0.96232 6.74864,-6.2998 3.91123,-3.02709 8.91132,-6.90475 11.11132,-8.61703 l 4,-3.11324 0.71874,0.66764 c 0.39531,0.3672 0.68331,0.69177 0.64,0.72126 -0.0433,0.0295 -5.14892,3.96493 -11.34582,8.74541 -6.19689,4.78048 -11.32178,8.69178 -11.38863,8.69178 -0.0668,0 -0.28477,-0.35821 -0.48425,-0.79602 z m -26.30004,-9.80313 c -5.544,-4.23342 -10.34442,-7.88672 -10.6676,-8.11845 -0.47983,-0.34405 -0.52178,-0.54431 -0.22874,-1.091871 0.19737,-0.36879 0.50331,-0.67054 0.67985,-0.67054 0.28511,0 19.91076,14.782591 21.08633,15.882821 0.41133,0.38496 0.3914,0.51791 -0.16,1.06744 -0.62602,0.62391 -0.69098,0.58103 -10.70984,-7.0694 z M 8.3043806,99.921739 c -3.80228,-1.42873 -4.73495,-6.84211 -1.62909,-9.45552 2.83596,-2.3863 6.7219304,-1.69211 8.5976204,1.53588 1.46276,2.51735 0.30759,6.39817 -2.26833,7.62052 -1.07231,0.508851 -3.6974604,0.675911 -4.7002004,0.29912 z m 73.4116204,-0.37421 c -3.22786,-1.96833 -3.8116,-6.25358 -1.20671,-8.85846 3.17349,-3.1735 8.60032,-1.49155 9.54012,2.95679 0.44623,2.11212 -1.00116,4.98019 -3.04725,6.03827 -1.29855,0.671511 -4.07877,0.599661 -5.28616,-0.1366 z m 38.748379,0.23167 c -2.02074,-1.11763 -3.11385,-2.90545 -3.11385,-5.09281 0,-5.02298 5.95845,-7.50782 9.50318,-3.96309 2.58428,2.58428 2.08844,6.56363 -1.08427,8.70172 -1.19739,0.806921 -4.13221,1.002861 -5.30506,0.35418 z m 55.49494,-0.35418 c -1.73915,-1.17201 -2.53494,-2.62098 -2.53494,-4.6156 0,-2.02781 0.51162,-3.1568 2.03777,-4.49678 3.7931,-3.330387 9.8531,0.32372 8.99177,5.42191 -0.23661,1.40049 -1.6479,3.22361 -3.06115,3.95443 -1.41521,0.731841 -4.15317,0.598831 -5.43345,-0.26396 z M 19.824381,95.032629 v -0.96 l 27.6,6.4e-4 27.6,6.4e-4 0.0671,0.95936 0.0671,0.95936 h -27.66712 -27.66712 z m 74.04033,-0.74326 c -0.0477,-2.0461 -1.04755,-4.4583 -2.44772,-5.90522 l -1.0146,-1.04849 12.382869,-12.38287 12.38287,-12.382871 1.36812,1.384182 c 1.38614,1.402408 3.33572,2.598533 4.23538,2.598533 0.27101,0 0.49275,0.107372 0.49275,0.238605 0,0.131232 -6.08336,6.323232 -13.51859,13.76 L 94.227211,94.072629 h 9.678579 9.67859 v 0.96 0.96 l -9.84,-5.7e-4 -9.839999,-5.7e-4 z m 38.531409,0.74326 0.1409,-0.96 h 18.52368 18.52368 v 0.96 0.96 H 150.9198 132.25522 Z m 55.09936,-4.24 c -0.0156,-0.7028 -1.86144,-2.87699 -3.32709,-3.919026 l -1.41869,-1.008657 16.09611,-16.09374 16.0961,-16.09374 1.38685,1.504555 c 1.4105,1.530208 3.32795,2.730613 4.36172,2.730613 0.34282,0 -6.08755,6.660069 -16.0661,16.639999 -9.15073,9.152 -16.74621,16.639996 -16.87885,16.639996 -0.13263,0 -0.24516,-0.18 -0.25005,-0.4 z M 17.639501,88.601979 c -0.349,-0.55884 -0.34261,-0.75891 0.0383,-1.2 0.25141,-0.29114 5.5364,-6.433346 11.74442,-13.649346 6.20802,-7.216 11.46693,-13.313626 11.68646,-13.550281 0.33416,-0.360227 0.53661,-0.358258 1.24346,0.01209 l 0.8443,0.442377 -12.35017,14.307905 c -6.7926,7.869348 -12.44867,14.307905 -12.56905,14.307905 -0.12037,0 -0.40733,-0.30179 -0.63769,-0.67065 z M 151.50438,76.121206 c -10.56,-7.223714 -19.39582,-13.246378 -19.63516,-13.383697 -0.36566,-0.209796 -0.36327,-0.38689 0.015,-1.108835 l 0.45016,-0.859164 19.505,13.320802 c 10.72775,7.326441 19.68863,13.472287 19.91307,13.657447 0.3261,0.26902 0.30007,0.45598 -0.12959,0.93076 -0.29572,0.32676 -0.62335,0.5902 -0.72808,0.58541 -0.10472,-0.005 -8.8304,-5.919009 -19.3904,-13.142723 z M 65.916821,73.118652 c -6.87084,-7.827841 -12.49244,-14.357176 -12.49244,-14.509632 0,-0.152457 0.252,-0.504905 0.56,-0.783217 0.59318,-0.536003 -0.57427,-1.810888 23.56498,25.733441 l 2.4246,2.766611 -0.78235,0.512617 -0.78235,0.512617 z m 22.06756,12.864761 c -0.96168,-0.450986 -2.10419,-0.681187 -3.4396,-0.693037 l -1.9996,-0.01774 -4e-4,-33.157917 -4e-4,-33.157917 2.32,-0.151495 c 1.5051,-0.09828 2.79771,-0.396348 3.68,-0.848585 l 1.36,-0.697092 v 34.726503 c 0,19.099577 -0.108,34.714369 -0.24,34.69954 -0.132,-0.01483 -0.888,-0.330846 -1.68,-0.702257 z m -75.36,-0.443584 c -1.48505,-0.420801 -3.8910404,-0.374512 -5.1238904,0.09858 -0.41961,0.161018 -0.47611,-3.801441 -0.47611,-33.391957 V 18.671796 l 1.84,0.132226 c 1.2740904,0.09156 2.4059104,-0.05912 3.6800004,-0.489915 l 1.84,-0.622141 V 51.8823 c 0,18.804683 -0.036,34.172461 -0.08,34.150618 -0.044,-0.02184 -0.8,-0.243733 -1.68,-0.493089 z M 123.92703,84.918582 c -0.19935,-0.519497 0.0545,-17.685393 0.26413,-17.861047 0.0623,-0.05218 0.47322,-0.18088 0.91322,-0.286006 l 0.8,-0.191137 -0.0813,6.786121 c -0.0447,3.732366 -0.16565,7.97412 -0.26872,9.42612 -0.16582,2.335857 -0.25899,2.64 -0.80873,2.64 -0.34172,0 -0.71008,-0.231323 -0.81858,-0.514051 z m 55.8467,0.29912 c -0.63762,-0.169052 -0.68667,-0.570176 -1.55283,-12.696413 -0.80764,-11.307016 -0.80974,-10.968714 0.0695,-11.198641 0.38831,-0.101547 0.77169,-0.118966 0.85194,-0.03871 0.0803,0.08026 0.4714,4.646544 0.86921,10.147307 0.3978,5.500764 0.80101,10.901388 0.89601,12.001388 0.17751,2.055312 0.13541,2.121585 -1.13384,1.785069 z M 120.4709,62.300847 c -3.06571,-1.736323 -3.65317,-6.029087 -1.18616,-8.667625 4.32541,-4.626148 11.7965,0.623181 9.0276,6.342963 -1.37982,2.850331 -5.01205,3.927138 -7.84144,2.324662 z M 45.584381,57.282779 c -2.16248,-0.49334 -3.78359,-2.050838 -4.34047,-4.170145 -0.50903,-1.937216 0.0146,-3.812808 1.47114,-5.269333 3.53156,-3.531558 9.50318,-1.019987 9.50318,3.996889 0,3.541137 -3.25671,6.213035 -6.63385,5.442589 z M 173.80186,57.054472 c -2.75674,-1.358467 -3.79898,-5.135578 -2.17958,-7.898869 2.46622,-4.208292 8.74124,-3.338075 10.16364,1.409491 0.67349,2.247916 -0.37765,4.818134 -2.57648,6.299925 -1.31259,0.884556 -3.81882,0.972361 -5.40758,0.189453 z M 132.5015,55.553527 c -0.45615,-2.038309 -1.83834,-4.337327 -3.22318,-5.36119 l -0.99549,-0.735991 17.45943,-17.461588 17.45942,-17.461589 1.74371,1.688918 c 1.22272,1.18429 2.17922,1.805398 3.20129,2.07876 l 1.45757,0.389842 -18.32889,18.330972 c -17.3868,17.388778 -18.27357,18.330973 -17.25252,18.330973 1.10361,0 28.32594,-2.075297 31.28543,-2.385048 1.6283,-0.170424 1.64523,-0.162964 1.78458,0.786496 0.0774,0.527203 0.0576,0.959371 -0.0439,0.960372 -0.10152,10e-4 -7.45658,0.575471 -16.34458,1.276601 -8.888,0.70113 -16.53308,1.276311 -16.98908,1.27818 -0.74223,0.003 -0.86938,-0.176677 -1.2138,-1.715708 z m 87.82689,-1.886157 c -1.4873,-0.846365 -2.74401,-2.997626 -2.74401,-4.697262 0,-0.639026 0.324,-1.803215 0.72,-2.587087 1.71839,-3.4015 5.77955,-4.129207 8.70577,-1.559957 2.81444,2.471114 2.14507,7.449571 -1.21607,9.044537 -1.58587,0.752547 -3.94314,0.66619 -5.46569,-0.200231 z m -34.36526,-1.431187 0.10125,-0.87645 13.71007,-1.066811 c 7.54054,-0.586745 13.75684,-1.020047 13.81399,-0.962893 0.0572,0.05715 0.19567,0.469482 0.30781,0.916283 l 0.20389,0.812367 -13.53788,1.036053 c -7.44583,0.569829 -13.79944,1.031969 -14.11913,1.026978 -0.44323,-0.0069 -0.55722,-0.217202 -0.48,-0.885527 z M 54.283761,46.278347 c -0.48577,-0.741382 -0.28327,-0.998698 11.83577,-15.04 6.7815,-7.857142 12.42335,-14.281133 12.53743,-14.275535 0.11408,0.0056 0.47783,0.214933 0.80833,0.46519 0.58138,0.440228 0.57508,0.485705 -0.1939,1.399592 -2.62647,3.121375 -24.32915,28.20504 -24.40334,28.20504 -0.0495,0 -0.31246,-0.339429 -0.58429,-0.754287 z m 177.724009,-0.89385 c -0.25863,-0.863214 -1.01457,-1.94478 -2.15948,-3.089691 l -1.76155,-1.761553 12.72577,-12.728758 12.72578,-12.728757 1.5795,1.420106 c 1.05809,0.951314 2.16276,1.589666 3.34637,1.933751 l 1.76687,0.513643 -13.88194,13.884698 c -7.63507,7.636584 -13.89578,13.884698 -13.91268,13.884698 -0.0169,0 -0.20979,-0.597662 -0.42864,-1.328137 z M 28.356721,30.29552 15.979091,16.175705 l 0.64346,-0.643454 0.64345,-0.643455 0.75167,0.791919 c 0.87387,0.920679 23.20832,26.464629 23.81231,27.234197 0.34139,0.434981 0.28678,0.594634 -0.34502,1.008603 -0.74404,0.487518 -0.85889,0.368302 -13.12824,-13.627995 z M 199.00117,30.022982 C 189.94994,22.955673 181.80777,16.617008 180.90746,15.93706 l -1.63692,-1.236271 0.67692,-1.354077 c 0.72693,-1.454117 0.94634,-5.290976 0.40223,-7.034077 l -0.27469,-0.88 h 36.22012 36.22011 l -0.26542,1.04 c -0.3333,1.305931 -0.34454,4.597146 -0.0197,5.758626 l 0.24575,0.878626 -35.95761,0.08137 -35.95762,0.08137 18.20025,14.205542 c 17.43972,13.611944 18.17776,14.230382 17.66227,14.799999 -0.29589,0.326952 -0.63411,0.594458 -0.75159,0.594458 -0.11749,0 -7.61917,-5.782343 -16.67041,-12.849652 z m -23.01245,12.129652 c 0.002,-0.22 -0.37906,-5.622561 -0.84764,-12.005691 -0.46859,-6.38313 -0.78565,-11.672025 -0.70457,-11.7531 0.0811,-0.08108 0.49328,-0.186514 0.91601,-0.234309 l 0.76861,-0.0869 0.87061,11.679999 c 0.47883,6.424 0.88006,11.932 0.89162,12.24 0.0155,0.41356 -0.23002,0.56 -0.93898,0.56 -0.55698,0 -0.95818,-0.167925 -0.95566,-0.399999 z M 7.1843806,14.57908 c -3.66613,-1.636407 -4.485,-6.470684 -1.55941,-9.206087 2.85295,-2.667478 7.4213104,-1.704036 8.9588304,1.889364 1.94731,4.551181 -2.88659,9.331062 -7.3994204,7.316723 z M 81.753851,14.302498 c -3.98207,-2.255369 -3.88789,-7.769612 0.16803,-9.838791 4.27461,-2.18074 9.22841,1.781981 7.9877,6.389637 -0.95714,3.554533 -4.97189,5.252421 -8.15573,3.449154 z m 87.350529,0.276582 c -3.66613,-1.636407 -4.485,-6.470684 -1.55941,-9.206087 3.46939,-3.243853 8.9472,-1.080821 9.32017,3.68027 0.32621,4.164272 -3.96533,7.219937 -7.76076,5.525817 z m 89.92,0 c -3.66613,-1.636407 -4.485,-6.470684 -1.55941,-9.206087 2.85294,-2.667478 7.42131,-1.704036 8.95882,1.889364 1.94732,4.551181 -2.88658,9.331062 -7.39941,7.316723 z M 18.442821,12.392635 c 0.33929,-0.93395 0.33691,-4.584788 -0.004,-5.92 l -0.26543,-1.04 h 28.82543 c 15.85398,0 28.82543,0.06263 28.82543,0.139168 0,0.07654 -0.153,0.541589 -0.34,1.033436 -0.43484,1.143695 -0.43955,4.498691 -0.008,5.63396 l 0.33208,0.873436 h -28.81365 -28.81362 z"
       id="path1" />
  </g>
</svg>
